<?xml version="1.0" encoding="utf-8"?>
<!-- Generator: Adobe Illustrator 21.0.2, SVG Export Plug-In . SVG Version: 6.00 Build 0)  -->
<svg version="1.1" id="Layer_1" xmlns="http://www.w3.org/2000/svg" xmlns:xlink="http://www.w3.org/1999/xlink" x="0px" y="0px"
	 viewBox="0 0 28 28" style="enable-background:new 0 0 28 28;" xml:space="preserve">
<g>
	<g>
		<path d="M25.6,2.2C25.4,2,25,1.8,24.7,1.8H8.2c-0.7,0-1.3,0.6-1.3,1.3v3.6H3.3C2.6,6.8,2,7.4,2,8.1v16.8c0,0.7,0.6,1.3,1.3,1.3
			h16.5c0.7,0,1.3-0.6,1.3-1.3v-3.6h3.6c0.7,0,1.3-0.6,1.3-1.3V3.2C26,2.8,25.8,2.5,25.6,2.2z M19.8,24.8H3.4V8.1h16.4L19.8,24.8
			L19.8,24.8z M24.6,19.9h-3.5V8.1c0-0.3-0.1-0.7-0.4-0.9c-0.2-0.3-0.6-0.4-0.9-0.4H8.2V3.2h16.4V19.9z"/>
	</g>
</g>
</svg>
