<?xml version="1.0" encoding="utf-8"?>
<!-- Generator: Adobe Illustrator 21.0.2, SVG Export Plug-In . SVG Version: 6.00 Build 0)  -->
<svg version="1.1" id="Layer_1" xmlns="http://www.w3.org/2000/svg" xmlns:xlink="http://www.w3.org/1999/xlink" x="0px" y="0px"
	 viewBox="0 0 200 200" style="enable-background:new 0 0 200 200;" xml:space="preserve">
<g>
	<path d="M100.2,30.6L117.4,75l2.3,6l6.4,0.4l47.6,2.7l-36.9,30.2l-5,4.1l1.6,6.2l12.1,46.1l-40.1-25.8l-5.4-3.5l-5.4,3.5
		l-40.1,25.8l12.1-46.1l1.6-6.2l-5-4.1L26.6,84.1l47.6-2.7l6.4-0.4l2.3-6L100.2,30.6 M100.2,3L73.6,71.4L0.3,75.5l56.8,46.4
		l-18.7,70.9l61.7-39.7l61.7,39.7l-18.7-70.9L200,75.5l-73.2-4.2L100.2,3L100.2,3z"/>
</g>
</svg>
