<?xml version="1.0" ?><!DOCTYPE svg  PUBLIC '-//W3C//DTD SVG 1.1//EN'  'http://www.w3.org/Graphics/SVG/1.1/DTD/svg11.dtd'><svg height="241" id="Layer_1" style="overflow:visible;enable-background:new 0 0 241 241;" version="1.1" viewBox="0 0 241 241" width="241" xml:space="preserve" xmlns="http://www.w3.org/2000/svg" xmlns:xlink="http://www.w3.org/1999/xlink"><g><g><path d="M211,0H30C13.5,0,0,13.5,0,30v181c0,16.5,13.5,30,30,30h181c16.5,0,30-13.5,30-30V30C241,13.5,227.5,0,211,0z     M150.468,179.42l-58.408-0.056l11.718-46.593c-12.552-6.17-21.189-19.085-21.189-34.018c0-20.923,16.962-37.885,37.885-37.885    c20.925,0,37.886,16.962,37.886,37.885c0,14.934-8.64,27.849-21.194,34.021L150.468,179.42z"/></g></g></svg>