<?xml version="1.0" encoding="utf-8"?>
<!-- Generator: Adobe Illustrator 21.0.2, SVG Export Plug-In . SVG Version: 6.00 Build 0)  -->
<svg version="1.1" id="Layer_1" xmlns="http://www.w3.org/2000/svg" xmlns:xlink="http://www.w3.org/1999/xlink" x="0px" y="0px"
	 viewBox="0 0 200 200" style="enable-background:new 0 0 200 200;" xml:space="preserve">
<style type="text/css">
	.st0{fill:#FFFFFF;}
	.st1{fill:none;stroke:#000000;stroke-width:14;stroke-miterlimit:10;}
</style>
<g>
	<path class="st0" d="M64.5,122C32.8,122,7,96.2,7,64.5S32.8,7,64.5,7S122,32.8,122,64.5S96.2,122,64.5,122z"/>
	<path d="M64.5,14C92.3,14,115,36.7,115,64.5S92.3,115,64.5,115S14,92.3,14,64.5S36.7,14,64.5,14 M64.5,0C28.9,0,0,28.9,0,64.5
		S28.9,129,64.5,129S129,100.1,129,64.5S100.1,0,64.5,0L64.5,0z"/>
</g>
<g>
	<line class="st1" x1="195" y1="195" x2="108.5" y2="108.5"/>
</g>
</svg>
