<?xml version="1.0" encoding="utf-8"?>
<!-- Generator: Adobe Illustrator 21.0.2, SVG Export Plug-In . SVG Version: 6.00 Build 0)  -->
<svg version="1.1" id="Layer_1" xmlns="http://www.w3.org/2000/svg" xmlns:xlink="http://www.w3.org/1999/xlink" x="0px" y="0px"
	 viewBox="0 0 28 28" style="enable-background:new 0 0 28 28;" xml:space="preserve">
<style type="text/css">
	.st0{fill:none;stroke:#000000;stroke-linecap:round;stroke-linejoin:round;stroke-miterlimit:10;}
</style>
<polyline class="st0" points="10.6,3 14.5,0.9 18.4,3 "/>
<polyline class="st0" points="18.4,25.1 14.5,27.1 10.6,25 "/>
<path d="M23.8,7.5H5.1C4.8,7.5,4.6,7.3,4.6,7s0.2-0.5,0.5-0.5h18.7c0.3,0,0.5,0.2,0.5,0.5S24.1,7.5,23.8,7.5z M24.3,14
	c0-0.3-0.2-0.5-0.5-0.5H5.1c-0.3,0-0.5,0.2-0.5,0.5s0.2,0.5,0.5,0.5h18.7C24.1,14.5,24.3,14.3,24.3,14z M24.4,21
	c0-0.3-0.2-0.5-0.5-0.5H5.2c-0.3,0-0.5,0.2-0.5,0.5s0.2,0.5,0.5,0.5h18.7C24.1,21.5,24.4,21.3,24.4,21z"/>
</svg>
