<?xml version="1.0" ?><!DOCTYPE svg  PUBLIC '-//W3C//DTD SVG 1.1//EN'  'http://www.w3.org/Graphics/SVG/1.1/DTD/svg11.dtd'><svg height="513px" style="enable-background:new 0 0 512.992 513;" version="1.1" viewBox="0 0 512.992 513" width="512.992px" xml:space="preserve" xmlns="http://www.w3.org/2000/svg" xmlns:xlink="http://www.w3.org/1999/xlink"><g id="settings-wheel-fill"><g id="settings-wheel-fill_1_"><path d="M512.492,241.437v40.159    c0,16.703-13.414,30.117-30.117,30.117h-38.097c-5.535,18.765-13.781,36.403-24.299,52.355l21.679,21.678    c11.819,11.82,11.819,30.86,0,42.588l-28.331,28.431c-11.828,11.728-30.877,11.728-42.605,0l-25.802-25.711    c-13.597,6.854-28.055,12.195-43.247,15.769v35.551c0,16.703-13.514,30.126-30.117,30.126h-40.159    c-16.602,0-30.117-13.423-30.117-30.126v-38.089c-16.419-4.884-31.803-11.82-46.069-20.451l-27.955,27.863    c-11.728,11.82-30.777,11.82-42.605,0l-28.422-28.33c-11.728-11.82-11.728-30.877,0-42.605L85.4,351.588    c-6.936-12.48-12.571-25.894-16.603-39.875H30.608c-16.602,0-30.108-13.414-30.108-30.117v-40.159    c0-16.603,13.506-30.117,30.108-30.117h35.569c3.555-15.2,8.906-29.641,15.852-43.256l-30.777-30.768    c-11.82-11.728-11.82-30.869,0-42.597l28.431-28.34c11.728-11.819,30.768-11.819,42.596,0l26.645,26.645    c16.043-10.501,33.589-18.765,52.354-24.208V30.617c0-16.612,13.515-30.117,30.117-30.117h40.159    c16.602,0,30.117,13.505,30.117,30.117v35.56c17.638,4.224,34.433,10.692,49.917,19.232l24.107-24.106    c11.828-11.728,30.868-11.728,42.596,0l28.431,28.422c11.728,11.728,11.728,30.776,0,42.596l-22.897,22.897    c10.417,17.171,18.298,36.027,22.989,56.102h35.559C499.078,211.32,512.492,224.834,512.492,241.437z M361.906,256.546    c0-58.173-47.288-105.46-105.369-105.46c-58.163,0-105.46,47.287-105.46,105.46c0,58.082,47.297,105.36,105.46,105.36    C314.618,361.905,361.906,314.627,361.906,256.546z" style="fill:#231F20;stroke:#231F20;stroke-miterlimit:10;"/></g></g><g id="Layer_1"/></svg>