<?xml version="1.0" encoding="utf-8"?>
<!-- Generator: Adobe Illustrator 21.0.2, SVG Export Plug-In . SVG Version: 6.00 Build 0)  -->
<svg version="1.1" id="Layer_1" xmlns="http://www.w3.org/2000/svg" xmlns:xlink="http://www.w3.org/1999/xlink" x="0px" y="0px"
	 viewBox="0 0 513 513" style="enable-background:new 0 0 513 513;" xml:space="preserve">
<style type="text/css">
	.st0{fill:#6B6B6B;stroke:#6B6B6B;stroke-miterlimit:10;}
</style>
<g id="settings-wheel-fill">
	<g id="settings-wheel-fill_1_">
		<path class="st0" d="M512.5,241.4v40.2c0,16.7-13.4,30.1-30.1,30.1h-38.1c-5.5,18.8-13.8,36.4-24.3,52.4l21.7,21.7
			c11.8,11.8,11.8,30.9,0,42.6l-28.3,28.4c-11.8,11.7-30.9,11.7-42.6,0l-25.8-25.7c-13.6,6.9-28.1,12.2-43.2,15.8v35.6
			c0,16.7-13.5,30.1-30.1,30.1h-40.2c-16.6,0-30.1-13.4-30.1-30.1v-38.1c-16.4-4.9-31.8-11.8-46.1-20.5l-28,27.9
			c-11.7,11.8-30.8,11.8-42.6,0l-28.4-28.3c-11.7-11.8-11.7-30.9,0-42.6l29.2-29.2c-6.9-12.5-12.6-25.9-16.6-39.9H30.6
			c-16.6,0-30.1-13.4-30.1-30.1v-40.2c0-16.6,13.5-30.1,30.1-30.1h35.6c3.6-15.2,8.9-29.6,15.9-43.3l-30.8-30.8
			c-11.8-11.7-11.8-30.9,0-42.6l28.4-28.3c11.7-11.8,30.8-11.8,42.6,0L148.9,93c16-10.5,33.6-18.8,52.4-24.2V30.6
			c0-16.6,13.5-30.1,30.1-30.1h40.2c16.6,0,30.1,13.5,30.1,30.1v35.6c17.6,4.2,34.4,10.7,49.9,19.2l24.1-24.1
			c11.8-11.7,30.9-11.7,42.6,0l28.4,28.4c11.7,11.7,11.7,30.8,0,42.6l-22.9,22.9c10.4,17.2,18.3,36,23,56.1h35.6
			C499.1,211.3,512.5,224.8,512.5,241.4z M361.9,256.5c0-58.2-47.3-105.5-105.4-105.5c-58.2,0-105.5,47.3-105.5,105.5
			c0,58.1,47.3,105.4,105.5,105.4C314.6,361.9,361.9,314.6,361.9,256.5z"/>
	</g>
</g>
<g id="Layer_1_1_">
</g>
</svg>
