<?xml version="1.0" encoding="utf-8"?>
<!-- Generator: Adobe Illustrator 21.0.2, SVG Export Plug-In . SVG Version: 6.00 Build 0)  -->
<svg version="1.1" id="Layer_1" xmlns="http://www.w3.org/2000/svg" xmlns:xlink="http://www.w3.org/1999/xlink" x="0px" y="0px"
	 viewBox="0 0 28 28" style="enable-background:new 0 0 28 28;" xml:space="preserve">
<g>
	<g>
		<path d="M24.2,4.2h-5.5V2.5V2.4c0-0.3-0.2-0.6-0.6-0.6H9.8c-0.3,0-0.6,0.3-0.6,0.6v0.1v1.7H3.8C3,4.2,3,5.3,3.8,5.3h1.9v20.2
			c0,0.5,0.3,0.6,0.7,0.6c0.1,0,0.1,0,0.2,0h14.9c0.1,0,0.1,0,0.2,0c0.3,0.1,0.8-0.1,0.8-0.6V5.3h1.7C25,5.3,25,4.2,24.2,4.2z
			 M10.4,3h7.2v1.3h-7.2V3z M21.2,25H6.8V5.3h14.3V25z M10.9,20.1V9c0-0.8-1.1-0.8-1.1,0v11.1C9.7,20.9,10.9,20.9,10.9,20.1z
			 M14.6,20.1V9c0-0.8-1.3-0.8-1.3,0v11.1C13.4,20.9,14.6,20.9,14.6,20.1z M18.3,20.1V9c0-0.8-1.1-0.8-1.1,0v11.1
			C17.1,20.9,18.3,20.9,18.3,20.1z"/>
	</g>
</g>
</svg>
