<?xml version="1.0" encoding="utf-8"?>
<!-- Generator: Adobe Illustrator 21.0.2, SVG Export Plug-In . SVG Version: 6.00 Build 0)  -->
<svg version="1.1" id="Layer_1" xmlns="http://www.w3.org/2000/svg" xmlns:xlink="http://www.w3.org/1999/xlink" x="0px" y="0px"
	 viewBox="0 0 24 24" style="enable-background:new 0 0 24 24;" xml:space="preserve">
<path d="M21.4,1.9h-1.9h-3V0.8c0-0.4-0.3-0.8-0.8-0.8H8.3C7.8,0,7.5,0.3,7.5,0.8v1.1h-3H2.6c-0.4,0-0.8,0.3-0.8,0.8s0.3,0.8,0.8,0.8
	h1.1v19.8C3.7,23.7,4,24,4.5,24h15.1c0.4,0,0.8-0.3,0.8-0.8V3.4h1.1c0.4,0,0.8-0.3,0.8-0.8C22.2,2.2,21.8,1.9,21.4,1.9z M9,1.5h6
	v0.4H9V1.5z M18.8,22.5H5.2V3.4h13.5L18.8,22.5L18.8,22.5z"/>
<path id="XMLID_539_" d="M8.2,19.3C8.6,19.3,9,19,9,18.5V7.2c0-0.4-0.3-0.8-0.8-0.8c-0.4,0-0.8,0.3-0.8,0.8v11.4
	C7.4,19,7.7,19.3,8.2,19.3z"/>
<path id="XMLID_540_" d="M15.7,19.3c0.4,0,0.8-0.3,0.8-0.8V7.2c0-0.4-0.3-0.8-0.8-0.8S15,6.8,15,7.2v11.4C15,19,15.3,19.3,15.7,19.3
	z"/>
<path id="XMLID_541_" d="M12,19.3c0.4,0,0.8-0.3,0.8-0.8v-11c0-0.4-0.3-0.8-0.8-0.8c-0.4,0-0.8,0.3-0.8,0.8v11.1
	C11.2,19,11.6,19.3,12,19.3z"/>
</svg>
