<?xml version="1.0" encoding="utf-8"?>
<!-- Generator: Adobe Illustrator 21.0.2, SVG Export Plug-In . SVG Version: 6.00 Build 0)  -->
<svg version="1.1" id="Layer_1" xmlns="http://www.w3.org/2000/svg" xmlns:xlink="http://www.w3.org/1999/xlink" x="0px" y="0px"
	 viewBox="0 0 64 64" style="enable-background:new 0 0 64 64;" xml:space="preserve">
<style type="text/css">
	.st0{font-family:'FiraMono-Bold';}
	.st1{font-size:17px;}
</style>
<g>
</g>
<text transform="matrix(1 0 0 1 15.625 40.625)" class="st0 st1">CMS</text>
<g>
	<path d="M32,42v0.4c0.7,0.2,1.2,0.9,1.2,1.7c0,1-0.8,1.8-1.8,1.8s-1.8-0.8-1.8-1.8c0-0.8,0.6-1.5,1.4-1.7V42h-4.1v5.5h9.3V42H32z"
		/>
	<path d="M15,16.5v7.8h11.9v3.1h9.3v-3.1H49v-7.8H15z M30.9,27.2L30.9,27.2L30.9,27.2L30.9,27.2L30.9,27.2l-2.5-6.4h-8.2
		c-0.2,0.7-0.9,1.3-1.7,1.3c-1,0-1.8-0.8-1.8-1.8c0-1,0.8-1.8,1.8-1.8c0.8,0,1.5,0.5,1.7,1.3h8.9l2.7,7.1l0,0l0.1,0.4H30.9z
		 M45.4,22.1c-0.8,0-1.5-0.5-1.7-1.3H33v0l-0.4-1H33v0h10.7c0.2-0.7,0.9-1.3,1.7-1.3c1,0,1.8,0.8,1.8,1.8
		C47.2,21.2,46.4,22.1,45.4,22.1z"/>
</g>
</svg>
