<?xml version="1.0" encoding="utf-8"?>
<!-- Generator: Adobe Illustrator 21.0.2, SVG Export Plug-In . SVG Version: 6.00 Build 0)  -->
<svg version="1.1" id="Layer_1" xmlns="http://www.w3.org/2000/svg" xmlns:xlink="http://www.w3.org/1999/xlink" x="0px" y="0px"
	 viewBox="0 0 64 64" style="enable-background:new 0 0 64 64;" xml:space="preserve">
<g>
	<path d="M39.4,53.9h-14V22.4H9.3V10.5h47.5v11.9H39.4V53.9z M26.8,52.5H38V21h17.5v-9.1H10.7V21h16.1V52.5z"/>
</g>
<g>
	<circle cx="14.9" cy="16.3" r="2.1"/>
	<path d="M14.9,18.8c-1.3,0-2.4-1.1-2.4-2.4c0-1.3,1.1-2.4,2.4-2.4s2.4,1.1,2.4,2.4C17.4,17.7,16.3,18.8,14.9,18.8z M14.9,14.6
		c-1,0-1.7,0.8-1.7,1.7c0,1,0.8,1.7,1.7,1.7s1.7-0.8,1.7-1.7C16.7,15.4,15.9,14.6,14.9,14.6z"/>
</g>
<g>
	<circle cx="51.2" cy="16.3" r="2.1"/>
	<path d="M51.2,18.8c-1.3,0-2.4-1.1-2.4-2.4c0-1.3,1.1-2.4,2.4-2.4c1.3,0,2.4,1.1,2.4,2.4C53.6,17.7,52.5,18.8,51.2,18.8z
		 M51.2,14.6c-1,0-1.7,0.8-1.7,1.7c0,1,0.8,1.7,1.7,1.7c1,0,1.7-0.8,1.7-1.7C52.9,15.4,52.1,14.6,51.2,14.6z"/>
</g>
<g>
	<circle cx="32.3" cy="48.6" r="2.1"/>
	<path d="M32.3,51.1c-1.3,0-2.4-1.1-2.4-2.4s1.1-2.4,2.4-2.4c1.3,0,2.4,1.1,2.4,2.4S33.6,51.1,32.3,51.1z M32.3,46.9
		c-1,0-1.7,0.8-1.7,1.7s0.8,1.7,1.7,1.7c1,0,1.7-0.8,1.7-1.7S33.3,46.9,32.3,46.9z"/>
</g>
<g>
	<polygon points="31.6,25.7 28.3,17 14.9,17 14.9,15.6 29.3,15.6 33,25.2 	"/>
</g>
<g>
	<rect x="34.4" y="15.6" width="16.8" height="1.4"/>
</g>
<g>
	<rect x="31.7" y="30.6" width="1.4" height="18.1"/>
</g>
<g>
	<polygon points="33,25.2 33.2,25.7 31.6,25.7 	"/>
</g>
<g>
	<polyline points="34.4,15.6 33.9,15.6 34.4,17 	"/>
	<polygon points="34.4,17 33.8,15.6 34.4,15.6 34.4,15.6 33.9,15.6 34.4,17 	"/>
</g>
</svg>
