<?xml version="1.0" encoding="utf-8"?>
<!-- Generator: Adobe Illustrator 21.0.2, SVG Export Plug-In . SVG Version: 6.00 Build 0)  -->
<svg version="1.1" id="Layer_1" xmlns="http://www.w3.org/2000/svg" xmlns:xlink="http://www.w3.org/1999/xlink" x="0px" y="0px"
	 viewBox="0 0 64 64" style="enable-background:new 0 0 64 64;" xml:space="preserve">
<g>
</g>
<path d="M8.6,10.9v10.9h16.8v32.8h13.1V21.8h18.2V10.9H8.6z M16.2,16.9c-0.3,1.1-1.3,1.8-2.4,1.8c-1.4,0-2.6-1.1-2.6-2.6
	c0-1.4,1.1-2.6,2.6-2.6c1.2,0,2.1,0.8,2.4,1.8h12.6l3.8,10l0,0l0.2,0.5h-1.6l0,0l0,0h0l0,0l-3.5-9.1H16.2z M31.9,52.4
	c-1.4,0-2.6-1.1-2.6-2.6c0-1.2,0.8-2.2,1.9-2.5V31h1.5v16.5c1,0.3,1.7,1.3,1.7,2.4C34.4,51.3,33.3,52.4,31.9,52.4z M51.6,18.7
	c-1.2,0-2.1-0.8-2.4-1.8H34.1v0l-0.6-1.4h0.6v0h15.1c0.3-1.1,1.3-1.8,2.4-1.8c1.4,0,2.6,1.1,2.6,2.6C54.1,17.6,53,18.7,51.6,18.7z"
	/>
</svg>
